<svg width="207" height="52" viewBox="0 0 207 52" fill="none" xmlns="http://www.w3.org/2000/svg">
<path d="M115.997 33.9648L116.241 35.1244C116.241 35.6127 115.987 36.1925 115.478 36.8639C114.134 38.6135 111.976 40.6275 109.003 42.9061C106.051 45.1643 103.872 46.2934 102.467 46.2934C101.062 46.2934 99.963 45.8865 99.169 45.0728C98.375 44.2387 97.978 43.2926 97.978 42.2347C97.978 40.9734 99.301 38.1862 101.948 33.8732C105.918 27.4648 110.988 19.9781 117.157 11.4131C115.854 12.7559 112.393 16.3772 106.773 22.277C94.333 35.2973 87.064 42.6721 84.967 44.4014C84.621 44.6862 84.112 44.8286 83.44 44.8286C82.788 44.8286 82.096 44.5642 81.363 44.0352C80.63 43.4859 80.264 42.8756 80.264 42.2042V42.0516C80.345 41.1972 82.31 37.0164 86.158 29.5094C90.006 22.0023 93.233 16.0313 95.84 11.5962C91.991 15.8279 88.103 20.5477 84.173 25.7559C76.701 35.6432 71.234 44.0657 67.772 51.0235C67.467 51.6745 67.09 52 66.642 52C66.194 52 65.543 51.8881 64.688 51.6643C62.896 51.1761 62 50.3216 62 49.1009C62 48.3685 63.497 45.7543 66.49 41.2582C69.483 36.7418 72.954 31.8185 76.904 26.4883C80.854 21.1377 84.947 15.9906 89.182 11.0469C95.025 4.21127 98.782 0.793427 100.451 0.793427C100.716 0.793427 100.971 0.864632 101.215 1.00704C101.459 1.12911 101.612 1.19014 101.673 1.19014C101.734 1.19014 101.795 1.15962 101.856 1.09859C102.121 0.773083 102.64 0.610329 103.414 0.610329C104.208 0.610329 104.972 0.762911 105.705 1.06808C106.458 1.37324 106.835 1.71909 106.835 2.10563C106.835 2.34977 105.816 4.29264 103.78 7.93427C96.96 20.0188 92.378 28.3192 90.037 32.8357C92.277 30.1299 95.473 26.5391 99.627 22.0634C103.801 17.5876 108.178 13.1221 112.76 8.66667C118.725 2.88889 122.288 0 123.449 0C123.917 0 124.508 0.101721 125.22 0.305164C126.483 0.671362 127.694 0.85446 128.855 0.85446C129.181 0.915493 129.455 1.0579 129.679 1.28169C129.924 1.48513 130.046 1.69875 130.046 1.92254C130.046 2.14632 129.985 2.32942 129.863 2.47183C123.245 11.2606 117.666 19.0117 113.126 25.7254C108.586 32.439 105.786 36.9757 104.727 39.3357C106.865 38.8881 110.052 36.3349 114.287 31.6761C114.47 31.4319 114.602 31.2692 114.684 31.1878C114.765 31.1064 114.836 31.025 114.897 30.9437C115.244 30.5368 115.508 30.7911 115.691 31.7066C115.773 32.2355 115.824 32.6119 115.844 32.8357C115.885 33.0391 115.915 33.2629 115.936 33.507C115.977 33.7308 115.997 33.8834 115.997 33.9648Z" fill="white"/>
<path d="M140.824 21.9718C141.435 21.9718 142.056 22.2465 142.687 22.7958C143.339 23.3451 143.665 24.1894 143.665 25.3286C143.665 26.4476 143.268 27.9124 142.474 29.723C141.68 31.5133 140.59 33.3443 139.206 35.216C137.821 37.0673 136.294 38.8169 134.625 40.4648C132.975 42.0923 131.184 43.4351 129.249 44.493C127.335 45.5305 125.595 46.0493 124.027 46.0493C122.459 46.0493 121.197 45.561 120.24 44.5845C119.303 43.5876 118.835 42.2144 118.835 40.4648C118.835 38.6948 119.262 36.7418 120.118 34.6056C120.993 32.4695 122.113 30.5876 123.477 28.9601C124.841 27.3122 126.317 25.8372 127.906 24.5352C131.224 21.8701 134.136 20.5376 136.64 20.5376C137.76 20.5376 138.605 20.8122 139.175 21.3615C139.379 21.5446 139.481 21.7074 139.481 21.8498V22.0329C139.766 21.9922 140.214 21.9718 140.824 21.9718ZM137.74 26.0305H137.526C136.813 26.0305 136.457 25.5117 136.457 24.4742C134.971 24.9624 133.413 25.8169 131.784 27.0376C130.155 28.2582 128.7 29.7027 127.417 31.3709C124.811 34.7074 123.487 37.525 123.447 39.8239C123.447 40.9632 123.864 41.5329 124.699 41.5329C125.533 41.5329 126.776 40.9836 128.425 39.885C130.074 38.7864 131.703 37.2199 133.311 35.1854C134.94 33.151 136.152 31.3912 136.946 29.9061C137.76 28.4006 138.167 27.3834 138.167 26.8545C138.167 26.3052 138.025 26.0305 137.74 26.0305Z" fill="white"/>
<path d="M170.966 21.7277C170.966 23.1315 170.182 25.1862 168.615 27.892C167.047 30.5775 165.031 33.3036 162.567 36.0704C160.124 38.8372 157.528 41.2379 154.779 43.2723C152.031 45.2864 149.883 46.2934 148.335 46.2934C147.5 46.2934 146.737 45.9883 146.045 45.3779C145.352 44.7676 145.006 43.8013 145.006 42.4789C145.006 41.1362 145.637 39.0305 146.9 36.162C148.162 33.2934 149.404 30.8725 150.626 28.8991C149.547 29.6925 148.885 30.0892 148.641 30.0892C148.417 30.0892 148.121 29.8247 147.755 29.2958C147.409 28.7668 147.236 28.3599 147.236 28.0751C147.236 27.77 147.287 27.5462 147.388 27.4038C151.399 22.9484 154.23 20.7207 155.879 20.7207C156.571 20.7207 157.151 20.9241 157.62 21.331C158.088 21.7379 158.322 22.2261 158.322 22.7958C158.322 23.3654 157.63 25.0031 156.245 27.7089C154.861 30.4147 153.476 33.151 152.092 35.9178C150.707 38.6643 150.015 40.3936 150.015 41.1056C150.015 41.2277 150.076 41.2887 150.198 41.2887C150.728 41.2887 152.153 40.241 154.474 38.1455C156.815 36.0297 158.709 34.0665 160.155 32.2559C161.6 30.4452 162.863 28.6244 163.942 26.7934C165.041 24.9624 165.591 23.7621 165.591 23.1925C165.591 22.6228 165.469 22.1549 165.224 21.7887C165.001 21.4022 164.889 20.9953 164.889 20.5681C164.889 20.1205 165.184 19.6322 165.774 19.1033C166.385 18.554 167.159 18.2793 168.095 18.2793C170.009 18.2793 170.966 19.4288 170.966 21.7277Z" fill="white"/>
<path d="M190.663 11.7183C190.663 12.8779 190.123 14.0477 189.044 15.2277C187.965 16.3873 186.835 16.9671 185.654 16.9671C184.494 16.9671 183.913 16.3568 183.913 15.1362C183.913 13.9155 184.422 12.7559 185.44 11.6573C186.479 10.5383 187.619 9.97887 188.861 9.97887C189.411 9.97887 189.848 10.1315 190.174 10.4366C190.5 10.7418 190.663 11.169 190.663 11.7183ZM185.715 38.3592C185.715 38.9695 185.654 39.4069 185.532 39.6714C184.534 41.7058 182.946 43.3537 180.768 44.615C178.589 45.856 176.695 46.4765 175.087 46.4765C173.478 46.4765 172.094 45.9374 170.933 44.8592C169.773 43.7809 169.192 42.6823 169.192 41.5634C169.192 40.4444 169.752 38.8169 170.872 36.6808C171.992 34.5446 173.112 32.5712 174.232 30.7606C175.352 28.9499 175.911 27.9734 175.911 27.831C175.911 27.6682 175.698 27.3631 175.27 26.9155C174.863 26.4679 174.659 26.1424 174.659 25.939C174.659 25.7152 175.077 25.1557 175.911 24.2606C176.767 23.3451 177.795 22.4499 178.996 21.5751C180.218 20.68 181.144 20.2324 181.775 20.2324C182.427 20.2324 183.007 20.5172 183.516 21.0869C184.025 21.6565 184.28 22.1753 184.28 22.6432C184.28 23.1111 181.857 27.5156 177.011 35.8568C176.95 35.9789 176.777 36.2535 176.492 36.6808C176.227 37.0876 176.013 37.4335 175.85 37.7183C175.708 37.9828 175.535 38.3083 175.331 38.6948C174.924 39.5086 174.72 40.1901 174.72 40.7394C174.72 41.4311 175.189 41.777 176.125 41.777C177.062 41.777 178.029 41.4617 179.027 40.831C180.045 40.18 180.92 39.4679 181.653 38.6948C183.567 36.6401 184.656 35.6127 184.921 35.6127C185.451 35.6127 185.715 36.5282 185.715 38.3592Z" fill="white"/>
<path d="M207 22.3991C207 23.7418 206.45 24.9218 205.351 25.939C204.272 26.9562 203.04 27.4648 201.655 27.4648C201.207 27.4648 200.912 27.3631 200.77 27.1596C200.627 26.9358 200.556 26.651 200.556 26.3052C200.556 25.9593 200.597 25.6236 200.678 25.2981C199.945 25.5423 199.131 25.9186 198.235 26.4272C197.339 26.9358 196.239 27.6886 194.936 28.6854C193.633 29.6823 192.982 30.4249 192.982 30.9131C192.982 31.0759 193.216 31.1573 193.684 31.1573C194.173 31.1573 194.916 30.9945 195.914 30.669C196.911 30.3232 197.603 30.1502 197.99 30.1502C198.398 30.1502 198.662 30.1706 198.784 30.2113C199.049 30.3537 199.334 30.669 199.64 31.1573C199.945 31.6252 200.098 32.0016 200.098 32.2864C200.098 32.5509 199.833 32.9069 199.304 33.3545C198.774 33.802 198.174 34.1479 197.502 34.392C196.83 34.6158 196.382 34.7887 196.158 34.9108C191.862 37.3114 189.714 38.9593 189.714 39.8545C189.714 41.4413 191.068 42.2347 193.776 42.2347C195.506 42.2347 197.247 41.6854 198.998 40.5869C200.485 39.651 201.818 38.705 202.999 37.7488C204.2 36.7723 204.954 36.1721 205.259 35.9484C205.585 35.7246 205.829 35.6127 205.992 35.6127C206.522 35.6127 206.786 36.2027 206.786 37.3826C206.786 38.5626 206.715 39.3459 206.572 39.7324C206.43 40.0986 206.023 40.5563 205.351 41.1056C200.994 44.6455 196.87 46.4155 192.982 46.4155C190.905 46.4155 189.245 46.1307 188.003 45.561C185.723 44.5235 184.583 42.9366 184.583 40.8005C184.583 37.993 186.527 35.867 190.416 34.4225C189.642 34.0767 189.144 33.6393 188.92 33.1103C188.696 32.561 188.584 31.6964 188.584 30.5164C188.584 29.3161 189.133 28.0548 190.233 26.7324C191.353 25.3897 192.717 24.2911 194.325 23.4366C197.909 21.5039 201.106 20.5376 203.915 20.5376C204.587 20.5376 205.269 20.7003 205.962 21.0258C206.654 21.3513 207 21.8091 207 22.3991Z" fill="white"/>
<path d="M48.191 16.8512C47.5688 16.6423 46.9465 16.445 46.3242 16.2593C46.4279 15.8298 46.5201 15.4004 46.6123 14.971C48.0297 8.05347 47.0963 2.49395 43.9504 0.66012C40.9197 -1.09246 35.9762 0.729759 30.975 5.11702C30.4795 5.54647 29.9955 5.99912 29.5346 6.45178C29.2234 6.15001 28.9008 5.84824 28.5781 5.55807C23.335 0.869038 18.0803 -1.10407 14.9344 0.741366C11.9152 2.50556 11.0164 7.7401 12.284 14.2862C12.4107 14.9361 12.549 15.5745 12.7104 16.2245C11.9729 16.4334 11.2469 16.6655 10.567 16.9093C4.41348 19.0565 0 22.4456 0 25.9507C0 29.572 4.70156 33.2048 11.0971 35.41C11.6156 35.5841 12.1342 35.7582 12.6643 35.9091C12.4914 36.6055 12.3416 37.2903 12.2033 37.9983C10.9934 44.4399 11.9383 49.5468 14.9574 51.2994C18.0688 53.11 23.3004 51.253 28.3937 46.7612C28.7971 46.4014 29.2004 46.03 29.6037 45.6354C30.1107 46.1345 30.6408 46.6103 31.1709 47.0746C36.1029 51.3458 40.9773 53.0752 43.985 51.3226C47.0963 49.512 48.1104 44.0221 46.7967 37.3367C46.693 36.826 46.5777 36.3038 46.451 35.7699C46.8197 35.6654 47.177 35.5493 47.5342 35.4333C54.1832 33.2164 59 29.63 59 25.9507C59 22.434 54.4598 19.0216 48.191 16.8512V16.8512ZM32.5998 6.99728C36.8865 3.23677 40.8852 1.76274 42.7059 2.81893C44.6533 3.94477 45.4023 8.49452 44.1809 14.4719C44.1002 14.8665 44.0195 15.2495 43.9158 15.6325C41.3576 15.0522 38.7648 14.6344 36.1605 14.4022C34.6625 12.2434 33.0262 10.1775 31.2516 8.23918C31.701 7.80974 32.1389 7.40351 32.5998 6.99728V6.99728ZM19.2672 31.9745C19.8549 32.9843 20.4541 33.9941 21.0879 34.9806C19.2902 34.7833 17.5041 34.4931 15.741 34.1101C16.248 32.4388 16.8818 30.7094 17.6193 28.9452C18.1494 29.9666 18.691 30.9764 19.2672 31.9745V31.9745ZM15.7756 18.0119C17.435 17.6405 19.198 17.3387 21.0303 17.1066C20.4195 18.0699 19.8203 19.0565 19.2557 20.0546C18.691 21.0412 18.1379 22.0509 17.6193 23.0723C16.8934 21.3429 16.2826 19.6484 15.7756 18.0119ZM18.933 26.0088C19.6936 24.4071 20.5232 22.8402 21.399 21.2965C22.2748 19.7528 23.2197 18.2556 24.2107 16.7816C25.9393 16.6539 27.7023 16.5843 29.5 16.5843C31.2977 16.5843 33.0723 16.6539 34.7893 16.7816C35.7687 18.244 36.7021 19.7412 37.5895 21.2733C38.4768 22.8054 39.3064 24.3722 40.09 25.9623C39.318 27.564 38.4883 29.1425 37.601 30.6978C36.7252 32.2415 35.7918 33.7387 34.8123 35.2243C33.0953 35.352 31.3092 35.41 29.5 35.41C27.6908 35.41 25.9393 35.352 24.2453 35.2476C23.2428 33.7735 22.2979 32.2647 21.4105 30.721C20.5232 29.1773 19.7051 27.6105 18.933 26.0088ZM39.7443 31.9513C40.332 30.9299 40.8852 29.897 41.4268 28.8524C42.1643 30.5353 42.8096 32.2415 43.3742 33.9941C41.5881 34.4003 39.7789 34.7137 37.9582 34.9226C38.5805 33.9476 39.1682 32.9495 39.7443 31.9513ZM41.4037 23.0723C40.8621 22.0509 40.309 21.0296 39.7328 20.0314C39.1682 19.0449 38.5805 18.0699 37.9697 17.1066C39.825 17.3387 41.5996 17.6521 43.259 18.0351C42.7289 19.7528 42.1066 21.4242 41.4037 23.0723V23.0723ZM29.523 10.015C30.733 11.3381 31.8738 12.7309 32.934 14.1701C30.6523 14.0657 28.3592 14.0657 26.0775 14.1701C27.2068 12.6729 28.3707 11.2801 29.523 10.015ZM16.1559 2.90018C18.0918 1.76274 22.39 3.38765 26.9188 7.42672C27.2068 7.68207 27.4949 7.96062 27.7945 8.23918C26.0084 10.1775 24.3605 12.2434 22.851 14.4022C20.2467 14.6344 17.6654 15.0406 15.1072 15.6093C14.9574 15.0174 14.8307 14.4138 14.7039 13.8103C13.6207 8.19275 14.3352 3.95637 16.1559 2.90018V2.90018ZM13.3326 33.495C12.8486 33.3557 12.3762 33.2048 11.9037 33.0423C9.44922 32.2647 6.66055 31.0344 4.64395 29.4211C3.48008 28.6086 2.69648 27.3551 2.47754 25.9507C2.47754 23.8267 6.11895 21.1108 11.3736 19.2654C12.0305 19.0332 12.6988 18.8243 13.3672 18.627C14.1508 21.1456 15.0957 23.6178 16.1904 26.0088C15.0842 28.4345 14.1277 30.9415 13.3326 33.495V33.495ZM26.7689 44.8694C24.8676 46.622 22.6666 48.0147 20.2697 48.9665C18.9906 49.5816 17.5156 49.6396 16.202 49.1174C14.3697 48.0496 13.6092 43.9525 14.6463 38.4394C14.773 37.7894 14.9113 37.1394 15.0727 36.5011C17.6539 37.0582 20.2582 37.4412 22.8971 37.6385C24.4182 39.8089 26.0891 41.8865 27.8752 43.8364C27.5064 44.1962 27.1377 44.5444 26.7689 44.8694ZM29.5922 42.049C28.4168 40.7723 27.2414 39.3563 26.1006 37.8358C27.2068 37.8822 28.3477 37.9055 29.5 37.9055C30.6869 37.9055 31.8508 37.8822 33.0031 37.8242C31.943 39.2982 30.8021 40.7026 29.5922 42.049V42.049ZM44.6533 45.5309C44.5496 46.9469 43.8582 48.2701 42.752 49.1638C40.9197 50.2316 37.0133 48.8388 32.7957 45.1943C32.3117 44.7765 31.8277 44.3239 31.3322 43.8596C33.0953 41.8981 34.7201 39.8205 36.1951 37.6385C38.834 37.418 41.4613 37.0117 44.0541 36.4198C44.1693 36.8957 44.273 37.3716 44.3652 37.8358C44.9299 40.3428 45.0221 42.9543 44.6533 45.5309V45.5309ZM46.7506 33.0539C46.4279 33.1584 46.1053 33.2628 45.7711 33.3557C44.9645 30.8255 43.9734 28.3533 42.8326 25.9507C43.9389 23.583 44.8723 21.1456 45.6559 18.6502C46.2551 18.8243 46.8313 19.01 47.3844 19.1957C52.7543 21.0528 56.5225 23.8151 56.5225 25.9275C56.5225 28.2024 52.5008 31.1388 46.7506 33.0539ZM29.5 31.3129C32.4154 31.3129 34.7777 28.9336 34.7777 25.9972C34.7777 23.0607 32.4154 20.6814 29.5 20.6814C26.5846 20.6814 24.2223 23.0607 24.2223 25.9972C24.2223 28.9336 26.5846 31.3129 29.5 31.3129Z" fill="#61DAFB"/>
</svg>
